# xmcd CD database file
#
# Track frame offsets:
#	183
#	20253
#	44818
#	61315
#	79763
#	95928
#	113270
#	130365
#	150528
#	170835
#	191308
#	210415
#	232230
#	250978
#	270230
#	288033
#	307338
#	326605
#	343885
#
# Disc length: 4645 seconds
#
# Revision: 2
# Processed by: cddbd v1.4b41PL1 Copyright (c) Steve Scherf et al.
# Submitted via: Feurio! 1.60 - http://www.feurio.com
#
DISCID=15122313,29122313
DTITLE=Various Artist - Slow Jams - 18 Mellow Flava's
DYEAR=1900
DGENRE=
TTITLE0=Damage - Forever
TTITLE1=Mark Morrison - Moan and groan
TTITLE2=Adina Howard - My Up And Down
TTITLE3=Blackstreet - Before I Let You Go
TTITLE4=Soul For Real - If You Want It
TTITLE5=Mica Paris - You Put A Move On My Heart
TTITLE6=R. Kelly - Step In My Room
TTITLE7=Barry White - Practice What You Preach
TTITLE8=Changing Faces - Stroke You Up
TTITLE9=The Isley Brothers - Let's Lay Together
TTITLE10=Jodeci - Feenin'
TTITLE11=Strictly For U - One More Night
TTITLE12=Nuttin' Nyce - Show Me
TTITLE13=Kreuz - Nice 'N' Slow
TTITLE14=En Vogue - Giving Him Something He Can Feel
TTITLE15=New Edition - Hit Me Off
TTITLE16=Beverley Knight - Cast All Your Cares
TTITLE17=Joe - I'm In Luv
TTITLE18=Track19 - Werbung
EXTD=
EXTT0=
EXTT1=
EXTT2=
EXTT3=
EXTT4=
EXTT5=
EXTT6=
EXTT7=
EXTT8=
EXTT9=
EXTT10=
EXTT11=
EXTT12=
EXTT13=
EXTT14=
EXTT15=
EXTT16=
EXTT17=
EXTT18=
PLAYORDER=
